PathFileType	4	(X/Y/Z)	/Users/itak/Documents/Research/Walk-IL/dataset/trc/00246_00009.trc
DataRate	CameraRate	NumFrames	NumMarkers	Units	OrigDataRate	OrigDataStartFrame	OrigNumFrames
100.000000	100.000000	4	53	mm	100.000000	418	837
Frame#	Time	RPSI			LPSI			L3			STRN			T10			C7			CLAV			RBAK			LBAK			LSHO			LUPA			LAEL			LAOL			LWTS			LWPS			LFRA			LIFD			LHPS			LHTS			RSHO			RUPA			RAEL			RAOL			RWTS			RWPS			RFRA			RIFD			RHTS			RHPS			RBHD			LFHD			RFHD			LBHD			LHIP			RHIP			RASI			LASI			LKNE			LTHI			LANK			LTIP			LTOE			LMT1			LMT5			LHEE			RKNE			RTHI			RANK			RTIP			RTOE			RMT1			RMT5			RHEE			
		X1	Y1	Z1	X2	Y2	Z2	X3	Y3	Z3	X4	Y4	Z4	X5	Y5	Z5	X6	Y6	Z6	X7	Y7	Z7	X8	Y8	Z8	X9	Y9	Z9	X10	Y10	Z10	X11	Y11	Z11	X12	Y12	Z12	X13	Y13	Z13	X14	Y14	Z14	X15	Y15	Z15	X16	Y16	Z16	X17	Y17	Z17	X18	Y18	Z18	X19	Y19	Z19	X20	Y20	Z20	X21	Y21	Z21	X22	Y22	Z22	X23	Y23	Z23	X24	Y24	Z24	X25	Y25	Z25	X26	Y26	Z26	X27	Y27	Z27	X28	Y28	Z28	X29	Y29	Z29	X30	Y30	Z30	X31	Y31	Z31	X32	Y32	Z32	X33	Y33	Z33	X34	Y34	Z34	X35	Y35	Z35	X36	Y36	Z36	X37	Y37	Z37	X38	Y38	Z38	X39	Y39	Z39	X40	Y40	Z40	X41	Y41	Z41	X42	Y42	Z42	X43	Y43	Z43	X44	Y44	Z44	X45	Y45	Z45	X46	Y46	Z46	X47	Y47	Z47	X48	Y48	Z48	X49	Y49	Z49	X50	Y50	Z50	X51	Y51	Z51	X52	Y52	Z52	X53	Y53	Z53	

419	4.18	-214.2451477050781	1024.93115234375	-329.4635620117188	-231.5826416015625	1027.162475585938	-449.519287109375	-227.1886901855469	1109.696166992188	-395.7099914550781	27.42096900939941	1287.853515625	-441.0505676269531	-219.9238739013672	1234.357055664062	-379.470458984375	-152.112548828125	1494.15234375	-388.0629272460938	6.147295951843262	1405.9189453125	-430.5604248046875	-212.0295104980469	1355.91357421875	-302.4307556152344	-199.7738037109375	1458.614990234375	-490.15771484375	-127.3485107421875	1461.4580078125	-567.385498046875	-184.7276458740234	1349.106079101562	-640.1380615234375	-197.2028656005859	1142.865112304688	-682.1964111328125	-249.1348571777344	1124.144653320312	-614.7412719726562	-86.33287048339844	912.5818481445312	-672.7420654296875	-136.9700164794922	897.202392578125	-738.5258178710938	-179.2549896240234	1037.4345703125	-709.0999145507812	-78.2257080078125	719.10498046875	-692.1104125976562	-115.125129699707	810.5582885742188	-746.8611450195312	-57.12221527099609	814.953125	-711.3253784179688	-54.98865509033203	1446.733276367188	-239.1316375732422	-60.90138244628906	1379.873168945312	-171.1875610351562	-83.28229522705078	1098.375	-137.8036804199219	-136.875732421875	1095.064208984375	-218.2030029296875	44.83810806274414	891.5460815429688	-220.051513671875	8.038994789123535	871.6676635742188	-146.8779449462891	-53.62298202514648	1029.483154296875	-134.1308288574219	65.1492919921875	700.7039184570312	-240.4060974121094	91.587646484375	772.7586059570312	-219.7732849121094	51.06064224243164	767.60400390625	-159.9266357421875	-106.614372253418	1641.625854492188	-344.6750793457031	70.36380004882812	1702.3720703125	-474.5242614746094	89.27347564697266	1696.21435546875	-376.3212280273438	-89.42447662353516	1658.090454101562	-482.9939270019531	-145.4139556884766	966.3614501953125	-600.4502563476562	-105.7678375244141	983.3950805664062	-233.3374176025391	-12.77941226959229	1023.434265136719	-283.0447998046875	-42.22856521606445	1009.32958984375	-561.6392822265625	80.58580780029297	525.3030395507812	-573.7958374023438	7.814793109893799	650.3181762695312	-608.6920166015625	170.7042541503906	41.97339248657227	-573.4700927734375	114.275016784668	300.2142639160156	-585.0401000976562	359.29736328125	118.2985610961914	-504.3407897949219	293.7961730957031	95.32614135742188	-466.2243957519531	293.9148864746094	69.23957061767578	-577.316650390625	103.6556549072266	38.99377822875977	-530.5325317382812	-125.3457641601562	495.5268859863281	-328.8524475097656	-63.90946578979492	752.3768310546875	-257.4499206542969	-267.4707946777344	33.49317932128906	-396.8290100097656	-141.3038635253906	378.8766784667969	-364.6607971191406	-84.38228607177734	40.64692687988281	-512.1901245117188	-152.6534881591797	38.88730239868164	-529.283935546875	-154.6252899169922	33.49342727661133	-409.6992797851562	-345.2542724609375	33.55889892578125	-428.440185546875	
420	4.19	-209.2466430664062	1023.974304199219	-331.4273681640625	-225.3067626953125	1025.912719726562	-451.6718139648438	-221.6177673339844	1108.657592773438	-397.9674987792969	33.38576507568359	1286.82958984375	-440.7693176269531	-214.6045837402344	1233.384887695312	-381.7881164550781	-146.9041595458984	1493.20263671875	-390.0003662109375	12.02561664581299	1404.920043945312	-430.6644592285156	-207.5072326660156	1355.044921875	-304.8087158203125	-193.3429260253906	1457.51953125	-492.4262084960938	-120.1008148193359	1460.233032226562	-568.8927612304688	-176.5066833496094	1347.841552734375	-642.255859375	-187.7615203857422	1141.5947265625	-684.85400390625	-240.4373779296875	1122.48193359375	-618.090576171875	-74.51699066162109	912.6296997070312	-673.9473876953125	-123.9375534057617	896.6854858398438	-740.4715576171875	-168.3135375976562	1036.368530273438	-711.55615234375	-64.18839263916016	719.739990234375	-692.6560668945312	-101.0246658325195	810.3681030273438	-748.5569458007812	-43.44411849975586	815.442626953125	-712.19921875	-51.15539169311523	1445.9609375	-239.8845977783203	-57.79701614379883	1379.201293945312	-171.9859008789062	-81.01514434814453	1097.930786132812	-138.0914611816406	-133.7074584960938	1094.484252929688	-219.0873107910156	46.48456954956055	889.6380004882812	-217.5963745117188	8.839704513549805	870.6306762695312	-144.6737670898438	-51.87744903564453	1028.947631835938	-133.7560882568359	65.1380615234375	698.4216918945312	-236.3461303710938	92.12547302246094	770.3973999023438	-215.9823303222656	50.98051834106445	766.0885009765625	-156.5054473876953	-101.6136322021484	1640.725708007812	-346.2035522460938	76.63410186767578	1701.304077148438	-474.3665466308594	94.56129455566406	1695.271850585938	-375.9587707519531	-82.99609375	1657.027709960938	-484.3552551269531	-137.4964904785156	964.737060546875	-601.5631713867188	-101.8942108154297	982.7818603515625	-234.0660705566406	-8.284558296203613	1022.692687988281	-282.9490661621094	-34.88334655761719	1008.009643554688	-561.755859375	87.93729400634766	523.6956176757812	-570.4095458984375	14.89754295349121	647.9656372070312	-607.4276733398438	187.6569213867188	42.57060623168945	-565.8792114257812	126.0103149414062	299.7339477539062	-579.7987060546875	373.1246643066406	123.0487747192383	-492.7105102539062	307.1846618652344	98.86737060546875	-455.9565734863281	310.4578552246094	72.22339630126953	-566.9099731445312	119.5815124511719	38.43592071533203	-524.5647583007812	-122.6486053466797	495.1071472167969	-328.9101257324219	-60.40315628051758	751.7003784179688	-257.3894958496094	-267.5575561523438	33.75747680664062	-397.2105102539062	-139.1348266601562	378.4395141601562	-364.6625366210938	-84.19792938232422	40.60099029541016	-512.1041870117188	-152.4885864257812	38.91421127319336	-529.2361450195312	-154.6687469482422	33.44104766845703	-409.7741394042969	-345.3665771484375	34.21136474609375	-429.0527954101562	
421	4.2	-204.1483917236328	1022.965637207031	-333.3987731933594	-218.8920593261719	1024.615844726562	-453.8210144042969	-215.9149475097656	1107.570922851562	-400.2283935546875	39.40069198608398	1285.787841796875	-440.4539184570312	-209.2006683349609	1232.378173828125	-384.1242980957031	-141.5985870361328	1492.22021484375	-391.8982849121094	17.94030570983887	1403.906005859375	-430.73583984375	-202.9436798095703	1354.142578125	-307.1997375488281	-186.8176879882812	1456.389526367188	-494.676513671875	-112.7892684936523	1458.984497070312	-570.3641357421875	-168.2271575927734	1346.536376953125	-644.3098754882812	-178.2221984863281	1140.281494140625	-687.4081420898438	-231.6038513183594	1120.781372070312	-621.333984375	-62.75907516479492	912.5745849609375	-675.00244140625	-110.9578247070312	896.1395263671875	-742.2513427734375	-157.3267517089844	1035.269897460938	-713.8789672851562	-50.38387298583984	720.411865234375	-693.0328369140625	-87.05836486816406	810.1363525390625	-750.0584106445312	-29.90304374694824	815.8319702148438	-712.8884887695312	-47.2846565246582	1445.165649414062	-240.6415557861328	-54.66384887695312	1378.514526367188	-172.7892761230469	-78.68622589111328	1097.483154296875	-138.3556365966797	-130.4532165527344	1093.88134765625	-219.9279174804688	48.14606857299805	887.7430419921875	-215.1048889160156	9.657392501831055	869.6258544921875	-142.4380187988281	-50.10209655761719	1028.418334960938	-133.3642425537109	65.08822631835938	696.183349609375	-232.23974609375	92.65412139892578	768.0672607421875	-212.1430969238281	50.90238189697266	764.622802734375	-153.0497589111328	-96.55454254150391	1639.7861328125	-347.6966247558594	82.91281890869141	1700.228271484375	-474.1492919921875	99.87205505371094	1694.318603515625	-375.5627136230469	-76.52608489990234	1655.934814453125	-485.6675109863281	-129.4275360107422	963.0694580078125	-602.6226806640625	-97.8944091796875	982.1417236328125	-234.7865142822266	-3.728543281555176	1021.962585449219	-282.8018798828125	-27.36795806884766	1006.678161621094	-561.81591796875	95.44060516357422	522.0987548828125	-566.8934326171875	22.28045654296875	645.6675415039062	-605.9049072265625	203.1110992431641	43.00815200805664	-558.396728515625	137.2245483398438	299.1737670898438	-574.5770263671875	385.4627075195312	127.1851119995117	-481.153564453125	319.0521240234375	101.8063659667969	-445.7797546386719	325.4372863769531	74.84983062744141	-556.5732421875	134.0325164794922	37.78217697143555	-518.74072265625	-119.7839736938477	494.6556091308594	-329.0336303710938	-56.82837677001953	751.0018310546875	-257.3462524414062	-267.6464233398438	34.06356048583984	-397.6277160644531	-136.8031768798828	377.9618835449219	-364.7326049804688	-83.98684692382812	40.54188537597656	-512.0242309570312	-152.3212738037109	38.92829132080078	-529.2195434570312	-154.673095703125	33.431396484375	-409.8367309570312	-345.4414367675781	34.93000411987305	-429.6974182128906	
422	4.21	-198.9417572021484	1021.9169921875	-335.3703918457031	-212.33984375	1023.28955078125	-455.9600830078125	-210.0810241699219	1106.443237304688	-402.4800109863281	45.4705696105957	1284.736694335938	-440.0982971191406	-203.7125701904297	1231.344360351562	-386.4701843261719	-136.1846008300781	1491.208862304688	-393.751953125	23.89215278625488	1402.881713867188	-430.7693176269531	-198.331787109375	1353.212768554688	-309.6017761230469	-180.1946105957031	1455.230224609375	-496.9150085449219	-105.4075164794922	1457.723266601562	-571.7998046875	-159.875	1345.20068359375	-646.30078125	-168.5666198730469	1138.937744140625	-689.8567504882812	-222.6243286132812	1119.056884765625	-624.4727783203125	-51.05083465576172	912.4170532226562	-675.8990478515625	-98.03217315673828	895.5623779296875	-743.8587036132812	-146.2865447998047	1034.145751953125	-716.065185546875	-36.81834030151367	721.069091796875	-693.3141479492188	-73.22173309326172	809.8548583984375	-751.367431640625	-16.50904083251953	816.115234375	-713.3909301757812	-43.37677764892578	1444.35791015625	-241.4040832519531	-51.50788116455078	1377.82421875	-173.5971221923828	-76.29973602294922	1097.040649414062	-138.6079254150391	-127.1188125610352	1093.261474609375	-220.7426910400391	49.84141159057617	885.8792114257812	-212.5886688232422	10.50030040740967	868.6669311523438	-140.1843872070312	-48.29020690917969	1027.90625	-132.9638519287109	65.04362487792969	694.0068969726562	-228.0973968505859	93.19015502929688	765.7869262695312	-208.2699127197266	50.84730529785156	763.2238159179688	-149.5717315673828	-91.43705749511719	1638.81787109375	-349.1540832519531	89.20684051513672	1699.15185546875	-473.8711853027344	105.2087326049805	1693.357788085938	-375.131103515625	-70.02003479003906	1654.819458007812	-486.9333801269531	-121.2091064453125	961.3934936523438	-603.6245727539062	-93.73404693603516	981.477294921875	-235.5004272460938	0.902813196182251	1021.263916015625	-282.6046752929688	-19.68294906616211	1005.355895996094	-561.8031616210938	103.0817489624023	520.5406494140625	-563.281982421875	30.01798629760742	643.510986328125	-604.1165161132812	216.9282073974609	43.15364074707031	-551.01708984375	147.8243560791016	298.4693603515625	-569.3875732421875	396.271484375	130.5063323974609	-469.7842102050781	329.3563232421875	104.0254592895508	-435.7937927246094	338.7308349609375	76.89473724365234	-546.3713989257812	146.9130401611328	36.96895980834961	-513.0109252929688	-116.7455902099609	494.173583984375	-329.2140197753906	-53.18438339233398	750.2816772460938	-257.3138427734375	-267.7250061035156	34.41500091552734	-398.0598754882812	-134.3273010253906	377.4385070800781	-364.8801574707031	-83.75285339355469	40.46694564819336	-511.9529724121094	-152.1578674316406	38.93067169189453	-529.2278442382812	-154.6491394042969	33.45335006713867	-409.8953552246094	-345.470947265625	35.71886825561523	-430.3436279296875	
